<?xml version="1.0" encoding="UTF-8"?>
<svg id="Ebene_1" data-name="Ebene 1" xmlns="http://www.w3.org/2000/svg" width="50" height="50" viewBox="0 0 50 50">
  <defs>
    <style>
      .cls-1 {
        fill: #fff;
      }
    </style>
  </defs>
  <circle class="cls-1" cx="25" cy="25" r="18.6"/>
  <g>
    <path d="M30.11,34.41c.9-.82,2.28-.82,3.18,0h0s1.83,1.66,1.83,1.66c-2.67,2.44-6.22,3.93-10.12,3.93-3.89,0-7.43-1.48-10.09-3.9l1.85-1.69h0c.9-.82,2.28-.82,3.18,0l1.62,1.48h0c1.96,1.79,4.96,1.79,6.92,0h0s1.62-1.48,1.62-1.48h0Z"/>
    <path d="M25,10c3.91,0,7.46,1.49,10.13,3.94-.08.06-.15.13-.23.19h0s-1.62,1.48-1.62,1.48c-.9.82-2.28.82-3.18,0l-1.62-1.48h0s-.05-.04-.05-.04c-1.96-1.74-4.93-1.73-6.87.04l-4.15,3.78,1.87,2.05,4.15-3.78h0c.9-.82,2.28-.82,3.18,0l1.62,1.48h0c1.96,1.79,4.96,1.79,6.92,0h0s1.62-1.48,1.62-1.48h0c.07-.07.15-.13.23-.18,1.88,2.51,3,5.62,3,9s-1.12,6.51-3.02,9.02l-1.82-1.66h0c-1.96-1.79-4.96-1.79-6.92,0h0s-1.62,1.48-1.62,1.48c-.9.82-2.28.82-3.18,0l-1.62-1.48h0s-.05-.04-.05-.04c-1.96-1.74-4.93-1.73-6.87.04l-1.86,1.69c-1.31-1.72-2.25-3.74-2.71-5.93l3.1-2.82h0c.9-.82,2.28-.82,3.18,0l1.62,1.48h0c1.96,1.79,4.96,1.79,6.92,0l1.62-1.48c.9-.82,2.28-.82,3.18,0h0s4.15,3.78,4.15,3.78l1.87-2.05-4.15-3.78h0c-1.96-1.79-4.96-1.79-6.92,0h0s-1.62,1.48-1.62,1.48h0c-.9.82-2.28.82-3.18,0l-1.62-1.48h0s-.05-.04-.05-.04c-1.96-1.74-4.93-1.73-6.87.04l-1.55,1.41c.18-8.13,6.83-14.66,15-14.66Z"/>
  </g>
</svg>